<?xml version="1.0" encoding="UTF-8" standalone="no"?>
<svg
   xmlns:dc="http://purl.org/dc/elements/1.1/"
   xmlns:cc="http://creativecommons.org/ns#"
   xmlns:rdf="http://www.w3.org/1999/02/22-rdf-syntax-ns#"
   xmlns:svg="http://www.w3.org/2000/svg"
   xmlns="http://www.w3.org/2000/svg"
   xmlns:xlink="http://www.w3.org/1999/xlink"
   xmlns:sodipodi="http://sodipodi.sourceforge.net/DTD/sodipodi-0.dtd"
   xmlns:inkscape="http://www.inkscape.org/namespaces/inkscape"
   viewBox="0 0 601.61 440"
   version="1.1"
   id="svg305"
   sodipodi:docname="template-empty.svg"
   inkscape:version="0.92.4 (5da689c313, 2019-01-14)">
  <metadata
     id="metadata309">
    <rdf:RDF>
      <cc:Work
         rdf:about="">
        <dc:format>image/svg+xml</dc:format>
        <dc:type
           rdf:resource="http://purl.org/dc/dcmitype/StillImage" />
      </cc:Work>
    </rdf:RDF>
  </metadata>
  <sodipodi:namedview
     pagecolor="#ffffff"
     bordercolor="#666666"
     borderopacity="1"
     objecttolerance="10"
     gridtolerance="10"
     guidetolerance="10"
     inkscape:pageopacity="0"
     inkscape:pageshadow="2"
     inkscape:window-width="1920"
     inkscape:window-height="1027"
     id="namedview307"
     showgrid="false"
     inkscape:zoom="1.0727273"
     inkscape:cx="394.55288"
     inkscape:cy="227.71973"
     inkscape:window-x="1358"
     inkscape:window-y="-8"
     inkscape:window-maximized="1"
     inkscape:current-layer="svg305" />
  <defs
     id="defs157">
    <radialGradient
       id="e97c1805-6ae2-4354-8717-3ea9dc12ada1"
       cx="-8782.75"
       cy="282.23077"
       r="364.82"
       gradientTransform="matrix(0.44, 0, 0, -0.65, 4177.3, 301.51)"
       gradientUnits="userSpaceOnUse"
       fx="-8782.75"
       fy="282.23077">
      <stop
         offset="0.27"
         stop-color="#c6d7fd"
         id="stop2" />
      <stop
         offset="0.32"
         stop-color="#d3e0fd"
         id="stop4" />
      <stop
         offset="0.43"
         stop-color="#e6eefe"
         id="stop6" />
      <stop
         offset="0.56"
         stop-color="#f4f8ff"
         id="stop8" />
      <stop
         offset="0.72"
         stop-color="#fdfdff"
         id="stop10" />
      <stop
         offset="1"
         stop-color="#fff"
         id="stop12" />
    </radialGradient>
    <linearGradient
       id="e56b11db-fee8-466c-80b2-ae2fa1302bd2"
       x1="-6307.21"
       y1="344.28"
       x2="-6307.21"
       y2="276.52"
       gradientTransform="matrix(-1, 0, 0, 1, -6007.55, 0)"
       gradientUnits="userSpaceOnUse">
      <stop
         offset="0"
         stop-color="#e7effe"
         id="stop15" />
      <stop
         offset="0.34"
         stop-color="#ebf2fe"
         id="stop17" />
      <stop
         offset="0.68"
         stop-color="#f8faff"
         id="stop19" />
      <stop
         offset="0.83"
         stop-color="#fff"
         id="stop21" />
    </linearGradient>
    <linearGradient
       id="b6a7fe3c-3268-4450-8250-bc404efef3ef"
       x1="275.43"
       y1="237.48"
       x2="275.04"
       y2="250.78"
       gradientUnits="userSpaceOnUse">
      <stop
         offset="0"
         stop-color="#ebf1fd"
         id="stop24" />
      <stop
         offset="1"
         stop-color="#fff"
         id="stop26" />
    </linearGradient>
    <radialGradient
       id="b769126a-c254-4fdc-b02c-4ae48ed5d767"
       cx="572.89"
       cy="348.05"
       r="111.89"
       gradientTransform="matrix(0.88, 0.01, 0, 0.27, -387.88, 251.65)"
       gradientUnits="userSpaceOnUse">
      <stop
         offset="0.57"
         stop-color="#545ff7"
         id="stop29" />
      <stop
         offset="1"
         stop-color="#9fcff8"
         stop-opacity="0"
         id="stop31" />
    </radialGradient>
    <radialGradient
       id="b62eebad-95a9-45e0-b384-1f379f213b88"
       cx="322.9"
       cy="318.16"
       r="70.44"
       gradientTransform="matrix(1, 0.07, -0.03, 0.5, 11.13, 136.98)"
       gradientUnits="userSpaceOnUse">
      <stop
         offset="0.01"
         stop-color="#545ff7"
         id="stop34" />
      <stop
         offset="0.96"
         stop-color="#9fcff8"
         stop-opacity="0"
         id="stop36" />
    </radialGradient>
    <radialGradient
       id="b4e23009-946a-4499-92ce-4de46e154ec0"
       cx="282.69"
       cy="311.99"
       r="59.22"
       gradientTransform="matrix(1, 0.07, -0.03, 0.5, 10.84, 136.53)"
       xlink:href="#b62eebad-95a9-45e0-b384-1f379f213b88" />
    <linearGradient
       id="f9d4fdc9-d417-4b11-bcd4-1cb2fa0eaa2e"
       x1="247.42"
       y1="318.87"
       x2="275.08"
       y2="318.87"
       gradientUnits="userSpaceOnUse">
      <stop
         offset="0.04"
         stop-color="#3a379e"
         id="stop40" />
      <stop
         offset="1"
         stop-color="#4d4ec3"
         id="stop42" />
    </linearGradient>
    <linearGradient
       id="e63f2a60-b03d-4d1f-b7d1-ec0afdf036dd"
       x1="328.89"
       y1="296.63"
       x2="347.28"
       y2="296.33"
       gradientUnits="userSpaceOnUse">
      <stop
         offset="0"
         stop-color="#4a48a8"
         id="stop45" />
      <stop
         offset="0.96"
         stop-color="#362c89"
         id="stop47" />
    </linearGradient>
    <linearGradient
       id="f151cf35-9b34-426c-aa10-e581ed4d816a"
       x1="311.74"
       y1="285.77"
       x2="277.38"
       y2="286.97"
       xlink:href="#e63f2a60-b03d-4d1f-b7d1-ec0afdf036dd" />
    <linearGradient
       id="a6c81d0e-f710-427d-9d96-6f882530b36a"
       x1="344.45"
       y1="333"
       x2="361.55"
       y2="333"
       xlink:href="#f9d4fdc9-d417-4b11-bcd4-1cb2fa0eaa2e" />
    <linearGradient
       id="bc768cfe-3f85-47b1-8f80-2c3f64954d92"
       x1="303.59"
       y1="313.93"
       x2="279.17"
       y2="305.19"
       xlink:href="#e63f2a60-b03d-4d1f-b7d1-ec0afdf036dd" />
    <radialGradient
       id="a276e29b-47be-459f-a7a0-1bdd66e71724"
       cx="111.73"
       cy="368.61"
       r="80.59"
       gradientTransform="translate(0 190.5) scale(1 0.48)"
       gradientUnits="userSpaceOnUse">
      <stop
         offset="0.39"
         stop-color="#545ff7"
         id="stop53" />
      <stop
         offset="1"
         stop-color="#adc2f8"
         id="stop55" />
    </radialGradient>
    <radialGradient
       id="a878106b-0f5e-42ca-b0bb-f8d42f4f5541"
       cx="993"
       cy="348.26"
       r="90.35"
       gradientTransform="matrix(0.88, 0.01, 0, 0.27, -387.87, 249.22)"
       xlink:href="#b769126a-c254-4fdc-b02c-4ae48ed5d767" />
    <radialGradient
       id="ffeeafe2-6690-4b77-a6ed-a1474a82e5cf"
       cx="481.88"
       cy="364.86"
       r="65.08"
       gradientTransform="translate(0 188.56) scale(1 0.48)"
       xlink:href="#a276e29b-47be-459f-a7a0-1bdd66e71724" />
    <radialGradient
       id="e03b08e0-26f9-46e7-a6e5-48a7fafe3a8c"
       cx="1102.46"
       cy="-15.91"
       r="75.44"
       gradientTransform="matrix(0.79, 0.01, 0, 0.23, -674.9, 281.71)"
       xlink:href="#b769126a-c254-4fdc-b02c-4ae48ed5d767" />
    <radialGradient
       id="eed511e6-64ea-4a6b-be89-9a6962c596d8"
       cx="578.63"
       cy="-2.05"
       r="54.34"
       gradientTransform="translate(-326.92 296.81) scale(0.9 0.42)"
       xlink:href="#a276e29b-47be-459f-a7a0-1bdd66e71724" />
    <radialGradient
       id="fbd4eb2c-1570-434b-8513-83a97be66c0f"
       cx="1417.37"
       cy="-11.18"
       r="64.94"
       gradientTransform="matrix(0.79, 0.01, 0, 0.23, -674.89, 283.04)"
       xlink:href="#b769126a-c254-4fdc-b02c-4ae48ed5d767" />
    <radialGradient
       id="edb971f8-38e3-4b52-8081-271c1c0b04ba"
       cx="855.91"
       cy="0.75"
       r="46.78"
       gradientTransform="translate(-326.92 298.07) scale(0.9 0.42)"
       xlink:href="#a276e29b-47be-459f-a7a0-1bdd66e71724" />
    <linearGradient
       id="a50072cd-7fbb-4b69-ad41-5b31f094e40b"
       x1="291.09"
       y1="200.9"
       x2="273.61"
       y2="226.99"
       gradientUnits="userSpaceOnUse">
      <stop
         offset="0"
         stop-color="#65bcfc"
         id="stop64" />
      <stop
         offset="0.24"
         stop-color="#5cb7fc"
         id="stop66" />
      <stop
         offset="0.62"
         stop-color="#45aafb"
         id="stop68" />
      <stop
         offset="1"
         stop-color="#2699fb"
         id="stop70" />
    </linearGradient>
    <linearGradient
       id="fe2c45d8-62b4-4c1b-89c9-250356b8e68a"
       x1="365.07"
       y1="204.25"
       x2="383.59"
       y2="219.9"
       xlink:href="#a50072cd-7fbb-4b69-ad41-5b31f094e40b" />
    <linearGradient
       id="fb00beae-8a3f-4be7-bf0e-5d74b276fa38"
       x1="330.77"
       y1="216.25"
       x2="327.12"
       y2="253.29"
       xlink:href="#a50072cd-7fbb-4b69-ad41-5b31f094e40b" />
    <linearGradient
       id="ba83441b-c661-4216-b103-771b4deb93ec"
       x1="329.42"
       y1="198.41"
       x2="327.66"
       y2="193.87"
       gradientUnits="userSpaceOnUse">
      <stop
         offset="0"
         stop-color="#ffcac9"
         id="stop75" />
      <stop
         offset="1"
         stop-color="#ffabaf"
         id="stop77" />
    </linearGradient>
    <clipPath
       id="e86429e4-552a-485f-a329-c0d620306cc9">
      <path
         d="M338.83,170.88c-.22,0-3.87-14.16-12.64-15-7.75-.79-14.93,7.34-16,18.15s4.3,20.22,12,21c8.23.83,15.2-12.21,15.42-12.19,2.36.24,4.55-2.24,4.88-5.53S341.19,171.12,338.83,170.88Z"
         style="fill:none"
         id="path80" />
    </clipPath>
    <radialGradient
       id="bd544d06-6026-4131-a5d1-8c0826c48863"
       cx="-696.51"
       cy="1428.14"
       r="12.45"
       gradientTransform="translate(594.56 -1391.45) rotate(-16.74)"
       gradientUnits="userSpaceOnUse">
      <stop
         offset="0"
         stop-color="#ffabaf"
         id="stop83" />
      <stop
         offset="1"
         stop-color="#ffcac9"
         stop-opacity="0"
         id="stop85" />
    </radialGradient>
    <radialGradient
       id="b2371f47-518a-4475-b37d-8d32b15ed859"
       cx="-725.17"
       cy="1423.48"
       r="11.69"
       xlink:href="#bd544d06-6026-4131-a5d1-8c0826c48863" />
    <radialGradient
       id="aed699b6-3293-4251-b67d-5fa049e5c787"
       cx="-707.82"
       cy="1431.06"
       r="11.69"
       xlink:href="#bd544d06-6026-4131-a5d1-8c0826c48863" />
    <linearGradient
       id="affbcb73-3856-4618-99c7-e40132de58a9"
       x1="-123.32"
       y1="2296.08"
       x2="-74.32"
       y2="2296.08"
       gradientTransform="matrix(-0.99, -0.1, -0.1, 0.99, 453.22, -2130.59)"
       gradientUnits="userSpaceOnUse">
      <stop
         offset="0.04"
         stop-color="#3a379e"
         id="stop90" />
      <stop
         offset="1"
         stop-color="#4a48a8"
         id="stop92" />
    </linearGradient>
    <linearGradient
       id="b2579f5a-5ccc-41d3-a4d4-6bb721ad1ed9"
       x1="-1310.25"
       y1="-691.51"
       x2="-1320.34"
       y2="-706.09"
       gradientTransform="translate(1316.61 1385.22) rotate(18.09)"
       gradientUnits="userSpaceOnUse">
      <stop
         offset="0.26"
         stop-color="#2699fb"
         id="stop95" />
      <stop
         offset="0.97"
         stop-color="#5eaef3"
         id="stop97" />
    </linearGradient>
    <radialGradient
       id="fde65bcf-25b1-42ee-9759-07061a4247c1"
       cx="245.98"
       cy="190.97"
       r="8.91"
       gradientUnits="userSpaceOnUse">
      <stop
         offset="0"
         stop-color="#ffb75e"
         id="stop100" />
      <stop
         offset="1"
         stop-color="#fce1ae"
         id="stop102" />
    </radialGradient>
    <radialGradient
       id="b0894d1a-bc66-44ce-b0cf-1b6e137f29f7"
       cx="920.72"
       cy="9209.64"
       r="43.72"
       gradientTransform="translate(-8964.24 -1211.48) rotate(-75.86)"
       gradientUnits="userSpaceOnUse">
      <stop
         offset="0.84"
         stop-color="#f9c053"
         id="stop105" />
      <stop
         offset="0.9"
         stop-color="#f9c053"
         id="stop107" />
      <stop
         offset="1"
         stop-color="#f9aa53"
         id="stop109" />
    </radialGradient>
    <radialGradient
       id="f3a605f5-a1f0-4db1-b0cb-cd8d7e995326"
       cx="204.44"
       cy="157.52"
       r="48.79"
       gradientUnits="userSpaceOnUse">
      <stop
         offset="0"
         stop-color="#545ff7"
         id="stop112" />
      <stop
         offset="0.96"
         stop-color="#9fcff8"
         stop-opacity="0"
         id="stop114" />
    </radialGradient>
    <linearGradient
       id="a3bac120-7b5a-4b44-910e-6d0efd5322d4"
       x1="-4142.52"
       y1="-1568.07"
       x2="-4132.54"
       y2="-1568.07"
       gradientTransform="translate(-217.9 4544.9) rotate(76.44)"
       xlink:href="#affbcb73-3856-4618-99c7-e40132de58a9" />
    <linearGradient
       id="f22fa06e-4f84-44a0-9369-da50bc3e2635"
       x1="-187.07"
       y1="1890.25"
       x2="-181.52"
       y2="1890.25"
       gradientTransform="matrix(1.23, -0.63, 0.45, 0.89, -294.7, -1640.39)"
       xlink:href="#affbcb73-3856-4618-99c7-e40132de58a9" />
    <linearGradient
       id="b346de5b-117a-4876-9eb0-462d90efc53d"
       x1="-5547.6"
       y1="3827.94"
       x2="-5541.52"
       y2="3827.94"
       gradientTransform="matrix(-1.37, 0.11, -0.08, -1, -6977.6, 4609.77)"
       xlink:href="#affbcb73-3856-4618-99c7-e40132de58a9" />
    <linearGradient
       id="b1843375-38eb-4b9a-ba79-7c307234a1b1"
       x1="315.33"
       y1="166.17"
       x2="319.58"
       y2="166.17"
       gradientTransform="matrix(1, 0, 0, 1, 0, 0)"
       xlink:href="#affbcb73-3856-4618-99c7-e40132de58a9" />
    <radialGradient
       id="bbb76876-4a55-48ea-959b-c244c808ebee"
       cx="-6912.07"
       cy="1156.69"
       r="23.19"
       gradientTransform="matrix(-1, -0.04, 0.03, -0.68, -6740.99, 609.06)"
       gradientUnits="userSpaceOnUse">
      <stop
         offset="0.47"
         stop-color="#fff"
         id="stop121" />
      <stop
         offset="1"
         stop-color="#fff"
         stop-opacity="0"
         id="stop123" />
    </radialGradient>
    <radialGradient
       id="ed8cc0f9-93a5-4387-9975-bb4223228292"
       cx="-6501.57"
       cy="4048.02"
       r="9.85"
       gradientTransform="matrix(-0.55, -0.54, 0.52, -0.44, -5452.06, -1592.2)"
       xlink:href="#bbb76876-4a55-48ea-959b-c244c808ebee" />
    <radialGradient
       id="b1ab538b-9625-474c-9c56-0e080629f390"
       cx="-6882.72"
       cy="1127.35"
       r="6.86"
       gradientTransform="matrix(-1, -0.04, 0.03, -0.68, -6710.78, 631.9)"
       xlink:href="#bbb76876-4a55-48ea-959b-c244c808ebee" />
    <radialGradient
       id="a1b19557-ad8a-4e40-a6ac-9cd532819116"
       cx="-1509.89"
       cy="5609.68"
       r="47.47"
       gradientTransform="matrix(0, 1.04, 0.87, 0, -4693.95, 1688.92)"
       gradientUnits="userSpaceOnUse">
      <stop
         offset="0"
         stop-color="#fff"
         id="stop128" />
      <stop
         offset="0.23"
         stop-color="#fff"
         stop-opacity="0.7"
         id="stop130" />
      <stop
         offset="0.63"
         stop-color="#fff"
         stop-opacity="0.2"
         id="stop132" />
      <stop
         offset="0.8"
         stop-color="#fff"
         stop-opacity="0"
         id="stop134" />
    </radialGradient>
    <linearGradient
       id="af39074f-acc1-443e-ab9d-6b2580b8c5f3"
       x1="177.31"
       y1="352.14"
       x2="177.31"
       y2="364.14"
       xlink:href="#b6a7fe3c-3268-4450-8250-bc404efef3ef" />
    <linearGradient
       id="ab5916c3-a6f3-43ec-93eb-cedd6e413382"
       x1="21.58"
       y1="66.91"
       x2="21.78"
       y2="76.99"
       gradientTransform="translate(144.25 216.35) rotate(3.82)"
       gradientUnits="userSpaceOnUse">
      <stop
         offset="0"
         stop-color="#ebf1fd"
         id="stop138" />
      <stop
         offset="0.26"
         stop-color="#ebf1fd"
         stop-opacity="0.99"
         id="stop140" />
      <stop
         offset="0.44"
         stop-color="#edf2fd"
         stop-opacity="0.95"
         id="stop142" />
      <stop
         offset="0.58"
         stop-color="#eff4fd"
         stop-opacity="0.89"
         id="stop144" />
      <stop
         offset="0.71"
         stop-color="#f3f6fe"
         stop-opacity="0.81"
         id="stop146" />
      <stop
         offset="0.84"
         stop-color="#f7f9fe"
         stop-opacity="0.7"
         id="stop148" />
      <stop
         offset="0.95"
         stop-color="#fcfdff"
         stop-opacity="0.57"
         id="stop150" />
      <stop
         offset="1"
         stop-color="#fff"
         stop-opacity="0.5"
         id="stop152" />
    </linearGradient>
    <linearGradient
       id="b5d221fe-fbd4-46e2-b066-dc1981e13d37"
       x1="-6318.61"
       y1="355.81"
       x2="-6318.45"
       y2="364.4"
       gradientTransform="matrix(-1, 0.03, 0.03, 1, -5876.44, 93.74)"
       xlink:href="#ab5916c3-a6f3-43ec-93eb-cedd6e413382" />
    <linearGradient
       id="bd3c5d69-cecb-4cad-8da1-824cb497cb86"
       x1="446.57"
       y1="353.09"
       x2="446.57"
       y2="365.09"
       xlink:href="#b6a7fe3c-3268-4450-8250-bc404efef3ef" />
  </defs>
  <title
     id="title159">34-Template-Empty</title>
  <g
     id="bb60efdd-fbe1-4bda-9105-6aadb79243bf"
     data-name="Warstwa 2">
    <rect
       x="49.772026"
       y="-7.9739017"
       width="487.58795"
       height="297.18387"
       transform="rotate(180,316.41,154.135)"
       style="opacity:0.18000004;fill:none"
       id="rect161" />
    <path
       d="M465.57,283.75c-36.38-28.32,55.85.52,39.13-11.06a20.82,20.82,0,0,1-2.45-2H111.59c-3.57,8,8.28,9.11,8.18,16.34-.17,12.72-37.2,32-24.57,46.62,15.19,17.59,52-11.07,75.42-8.7,24.08,2.43,48.49,25.07,74.09,33.55,41.19,13.64,58-42.72,127.36-7.14,45.63,23.4,73.76,18.14,75-.11C448,328.89,525.19,330.15,465.57,283.75Z"
       style="opacity:0.5;isolation:isolate;fill:url(#e56b11db-fee8-466c-80b2-ae2fa1302bd2)"
       id="path163" />
    <path
       d="M335.54,254.45c3.26-2.07,4.59-4.83,2.57-8.52-3.63-6.65-23.87-12.06-23.87-12.06-10.91.4-15,3.8-15,3.8-27.94-23.33-45.3.08-45.3.08-15.56-6.37-30.65.44-39.43,6.08a7.57,7.57,0,0,0-2.17,10.62Z"
       style="fill:url(#b6a7fe3c-3268-4450-8250-bc404efef3ef)"
       id="path165" />
    <ellipse
       cx="113.43"
       cy="349.44"
       rx="106.03"
       ry="32.93"
       style="opacity:0.15;isolation:isolate;fill:url(#b769126a-c254-4fdc-b02c-4ae48ed5d767)"
       id="ellipse167" />
    <path
       d="M349.69,298.31s-56.41-14.78-57.48-5.56-8.94,22.78-24.3,21.34-45.55-2.16-33.9,8.18c16,14.24,124.55,54.54,130.76,43.4s15.76-19.06,29.53-24.28,10.37-28.85,5.47-37.64S349.69,298.31,349.69,298.31Z"
       style="opacity:0.9;isolation:isolate;fill:url(#b62eebad-95a9-45e0-b384-1f379f213b88)"
       id="path169" />
    <path
       d="M293.21,288.52S236.8,273.74,235.73,283s-8.93,22.78-24.3,21.34-45.55-2.16-33.9,8.18c16,14.24,124.56,54.54,130.76,43.4s15.76-19.06,29.54-24.28,10.36-28.85,5.46-37.64S293.21,288.52,293.21,288.52Z"
       style="opacity:0.9;isolation:isolate;fill:url(#b4e23009-946a-4499-92ce-4de46e154ec0)"
       id="path171" />
    <path
       d="M292.94,314.32c-1.3,3.25-2.83,1.13-3,4.82-1.43-.56-3.33.11-4.75-.45-2.37-.93-6.15.05-8.61-.6-2.79-.74-8.59,2-11.37,3.31-4.26,2.08-9.75,2.72-14.17,4.48-.51.21-1-.16-1.15-.68-1-2.83,12.69-17.16,17.4-18,5-.87,16.39,3.27,21.34,3.93C291.28,311.5,291.72,314.06,292.94,314.32Z"
       style="fill:#ffcac9;isolation:isolate"
       id="path173" />
    <path
       d="M263.39,322.19c-4.16,2-7.42,9.4-11.49,9.49s-4.25-3.05-4.43-3.56c-1-2.84,14.23-21.14,19-22,2-.36,5.22.29,8.66,1.22C269.24,309.29,264.41,316.15,263.39,322.19Z"
       style="isolation:isolate;fill:url(#f9d4fdc9-d417-4b11-bcd4-1cb2fa0eaa2e)"
       id="path175" />
    <path
       d="M342.3,270.67c-2.24,18.77,38.06,16.27,34.72,34-2.83,15.07-47.9,31.05-83.61,18.55a84.19,84.19,0,0,0-22-8.64L287,306.3s42.62,6.32,52.4,2.11c4.79-2.06-28.37-6.71-28.37-6.71C301.56,289.09,344.54,251.9,342.3,270.67Z"
       style="isolation:isolate;fill:url(#e63f2a60-b03d-4d1f-b7d1-ec0afdf036dd)"
       id="path177" />
    <path
       d="M309.8,271.69c-9,10.54-57.6,2.08-59.35,17.31-3.43,29.87,27.92,6.37,27.92,6.37s49.52,10.86,36,5.06S348.93,258.72,309.8,271.69Z"
       style="isolation:isolate;fill:url(#f151cf35-9b34-426c-aa10-e581ed4d816a)"
       id="path179" />
    <path
       d="M355.38,334.92c-.6-2.7-1.31-5.37-2.08-8-.57-2-.87-4.48-2.11-6.12a5.09,5.09,0,0,1-1.06-2.66c-5.61-1.76-15.6-2.16-19.61-3.35-2.54-.76-4,1.4-5.21,1.14-.15,3.5,2.12,2.18.75,5.62,1.52.07,3,1.45,4.51,1.53,2.54.12,5.59,2.56,8.1,3,2.85.47,7,5.3,9,7.68,2.36,2.82,5.74,5.17,8.69,7.68A45.49,45.49,0,0,0,355.38,334.92Z"
       style="fill:#ffcac9;isolation:isolate"
       id="path181" />
    <path
       d="M349.05,335.18c3,3.55,2.92,11.61,6.6,13.36s5.12-1,5.5-1.44c2.05-2.18-4.34-25.11-8.3-27.79-1.7-1.14-4.89-1.87-8.4-2.43C349,321,350.59,329.25,349.05,335.18Z"
       style="isolation:isolate;fill:url(#a6c81d0e-f710-427d-9d96-6f882530b36a)"
       id="path183" />
    <path
       d="M252.07,290.15c-13,36.64,76.82,33.72,79,34s3.33-8.55,2-9.8-52.92-20.71-52.92-20.71S257.21,275.7,252.07,290.15Z"
       style="isolation:isolate;fill:url(#bc768cfe-3f85-47b1-8f80-2c3f64954d92)"
       id="path185" />
    <path
       d="M276.69,289.22s3.78,6.17,32.14,15.39"
       style="fill:none;stroke:#b8b8e7;stroke-linecap:round;stroke-miterlimit:10;stroke-width:0.5px;opacity:0.44"
       id="path187" />
    <path
       d="M329.68,309.82s8.65.6,13.76-3.35"
       style="fill:none;stroke:#b8b8e7;stroke-linecap:round;stroke-miterlimit:10;stroke-width:0.5px;opacity:0.44"
       id="path189" />
    <path
       d="M338.05,278.2a8.31,8.31,0,0,0,10.35,5.59"
       style="fill:none;stroke:#b8b8e7;stroke-linecap:round;stroke-miterlimit:10;stroke-width:0.5px;opacity:0.44"
       id="path191" />
    <path
       d="M300.15,277.79c2.94.24,6.38-.37,8.49-2.62"
       style="fill:none;stroke:#b8b8e7;stroke-linecap:round;stroke-miterlimit:10;stroke-width:0.5px;opacity:0.44"
       id="path193" />
    <ellipse
       cx="113.43"
       cy="338.45"
       rx="70.29"
       ry="22.6"
       style="fill:#c6d7fd"
       id="ellipse195" />
    <ellipse
       cx="113.43"
       cy="345.01"
       rx="67.29"
       ry="16.05"
       style="isolation:isolate;fill:url(#a276e29b-47be-459f-a7a0-1bdd66e71724)"
       id="ellipse197" />
    <ellipse
       cx="483.25"
       cy="349.38"
       rx="85.62"
       ry="26.59"
       style="opacity:0.15;isolation:isolate;fill:url(#a878106b-0f5e-42ca-b0bb-f8d42f4f5541)"
       id="ellipse199" />
    <ellipse
       cx="483.25"
       cy="340.5"
       rx="56.77"
       ry="18.25"
       style="fill:#c6d7fd"
       id="ellipse201" />
    <ellipse
       cx="483.25"
       cy="345.79"
       rx="54.34"
       ry="12.96"
       style="isolation:isolate;fill:url(#ffeeafe2-6690-4b77-a6ed-a1474a82e5cf)"
       id="ellipse203" />
    <ellipse
       cx="192.51"
       cy="284.72"
       rx="64.05"
       ry="19.28"
       style="opacity:0.15;isolation:isolate;fill:url(#e03b08e0-26f9-46e7-a6e5-48a7fafe3a8c)"
       id="ellipse205" />
    <ellipse
       cx="192.51"
       cy="278.29"
       rx="42.47"
       ry="13.24"
       style="fill:#c6d7fd"
       id="ellipse207" />
    <ellipse
       cx="192.51"
       cy="282.13"
       rx="40.65"
       ry="9.4"
       style="isolation:isolate;fill:url(#eed511e6-64ea-4a6b-be89-9a6962c596d8)"
       id="ellipse209" />
    <ellipse
       cx="440.79"
       cy="288.72"
       rx="55.13"
       ry="16.6"
       style="opacity:0.15;isolation:isolate;fill:url(#fbd4eb2c-1570-434b-8513-83a97be66c0f)"
       id="ellipse211" />
    <ellipse
       cx="440.79"
       cy="283.18"
       rx="36.55"
       ry="11.39"
       style="fill:#c6d7fd"
       id="ellipse213" />
    <ellipse
       cx="440.79"
       cy="286.49"
       rx="34.99"
       ry="8.09"
       style="isolation:isolate;fill:url(#edb971f8-38e3-4b52-8081-271c1c0b04ba)"
       id="ellipse215" />
    <path
       d="M250.69,193.77c-.39-.08-.75-.15-1.05-.19l-.17,0h-.26c-1.62-.06-4.07-1.37-6.31-2.92a12.19,12.19,0,0,0-3.26,4.15c3.19,3.23,4.39,3.65,4.39,3.65h0a22,22,0,0,0,5,2.65c.29.12.65.3,1.09.52a.91.91,0,0,0-.07.14c.83,1.43,1.81,3.15,2.91,5,1.57-3.11,4-5.74,7.13-6.38C255.63,196.16,252.17,193.32,250.69,193.77Z"
       style="fill:#ffcac9"
       id="path217" />
    <path
       d="M425.1,194.89c-2.72,2-8.78,5.16-11.67,4.88H413c-.31,0-.68,0-1.1,0h0c-1.27-.58-4.5,1.19-8.82,4.09a9.9,9.9,0,0,1,5.17,7.8l3.17-3.94c0-.05,0-.1,0-.16.47-.15.87-.28,1.18-.36a23.36,23.36,0,0,0,5.48-1.92h0s1.83-.36,7.52-5a7.93,7.93,0,0,0,2.41-3.39A1.82,1.82,0,0,0,425.1,194.89Z"
       style="fill:#ffcac9"
       id="path219" />
    <path
       d="M316.14,208.25c-4.82,0-10.62-6.51-11.56-10.11-6.18,3-14.63,15-19.37,25.39-8.43-6.27-18-16.45-25.11-23.14-3.16.64-5.56,3.27-7.13,6.38,4.59,7.88,11.38,18.94,18.75,26.07a8.46,8.46,0,0,0,7.75,4.74c8.56,0,24.85-10.31,29.09-17.36,5.25-8.76,11.82-9,12.19-13.12A9.15,9.15,0,0,1,316.14,208.25Z"
       style="isolation:isolate;fill:url(#a50072cd-7fbb-4b69-ad41-5b31f094e40b)"
       id="path221" />
    <path
       d="M403.06,203.89c-8.22,5.52-20.39,15.16-30.53,20.56-2.42-7.87-6.4-14.93-11.79-19.86l-4.43-.28a.8.8,0,0,1-.36-.07l-.74,0a9.49,9.49,0,0,1-4.65.9,8.52,8.52,0,0,1-7,4.74,25,25,0,0,1,5.67,8.13c3.32,7.55,15.42,21.63,24.14,22.81,3.81.51,9.66-2.76,11.58-5.28,8.78-6.21,17.5-16.63,23.29-23.81A9.9,9.9,0,0,0,403.06,203.89Z"
       style="isolation:isolate;fill:url(#fe2c45d8-62b4-4c1b-89c9-250356b8e68a)"
       id="path223" />
    <path
       d="M353.76,227.52c3-7.34,5.72-14.19,7.74-19.13,3.18-7.74-17.78-7.31-23-4.44h0c-2.68-2-5-3.59-6.17-4.68-2.21-2-8.3.15-13.4,2.55h0c-4.74,1.31-10.1-7.43-15.2-3.08-2.65,2.26-2.74,13.6-1.52,26.89-2.09,19.22,3.35,45.37,6.12,51.37,4.06,8.79,34.81,0,34.81,0s-2.36-9.12,0-22.3a48.47,48.47,0,0,1,3.59-11l1.26-2.76C350.28,236.08,352.67,231.65,353.76,227.52Z"
       style="isolation:isolate;fill:url(#fb00beae-8a3f-4be7-bf0e-5d74b276fa38)"
       id="path225" />
    <path
       d="M336.66,204.93c0-.13,0-.26,0-.4a9.91,9.91,0,0,1-2.34-2.4,4.73,4.73,0,0,1,0,.52c0,3.83-12.65,7.88-11.82,0a22.73,22.73,0,0,0,.12-2.8,11,11,0,0,1-1.45,2.66c0,.78-.07,1.58-.16,2.42C320,215.34,336.66,210,336.66,204.93Z"
       style="fill:#1881db;isolation:isolate"
       id="path227" />
    <path
       d="M319.93,190.21s3.42,4.56,2.59,12.44,11.82,3.83,11.82,0-4-10.06-2.18-16.59S319.93,190.21,319.93,190.21Z"
       style="fill:#ffcac9"
       id="path229" />
    <path
       d="M332.82,196.31c-.65-2.63-1.5-7.31-.66-10.25,1.87-6.53-12.23,4.15-12.23,4.15A25.36,25.36,0,0,1,322.58,202C326.55,201.55,331,199.69,332.82,196.31Z"
       style="isolation:isolate;fill:url(#ba83441b-c661-4216-b103-771b4deb93ec)"
       id="path231" />
    <path
       d="M338.83,170.88c-.22,0-3.87-14.16-12.64-15-7.75-.79-14.93,7.34-16,18.15s4.3,20.22,12,21c8.23.83,15.2-12.21,15.42-12.19,2.36.24,4.55-2.24,4.88-5.53S341.19,171.12,338.83,170.88Z"
       style="fill:#ffcac9"
       id="path233" />
    <g
       style="clip-path:url(#e86429e4-552a-485f-a329-c0d620306cc9)"
       clip-path="url(#e86429e4-552a-485f-a329-c0d620306cc9)"
       id="g241">
      <circle
         cx="338.81"
         cy="176.76"
         r="12.45"
         style="fill:url(#bd544d06-6026-4131-a5d1-8c0826c48863)"
         id="circle235" />
      <circle
         cx="310.02"
         cy="180.55"
         r="11.69"
         style="fill:url(#b2371f47-518a-4475-b37d-8d32b15ed859)"
         id="circle237" />
      <circle
         cx="328.83"
         cy="182.82"
         r="11.69"
         style="fill:url(#aed699b6-3293-4251-b67d-5fa049e5c787)"
         id="circle239" />
    </g>
    <path
       d="M335.28,159.55a14,14,0,0,0-5.4-8.68c-3.66-2.66-8.29-3.22-12.69-3.5s-9-.42-13-2.45a21.84,21.84,0,0,0-3.47-1.7,3.55,3.55,0,0,0-3.55.62,4.55,4.55,0,0,0-.87,3.65,18.36,18.36,0,0,0,6.15,11.63,27.71,27.71,0,0,0,11.64,6,31.37,31.37,0,0,0,12.52.76,10,10,0,0,1,3,1.9,16.55,16.55,0,0,1,2.15,2.67c.91,1.68,3.72,3.67,1.72,11.71a1.79,1.79,0,0,0,0,1.12,1.27,1.27,0,0,0,1.57.61,2.65,2.65,0,0,0,1.28-1.26,12,12,0,0,0,1.31-3.54c1.88-9.17,4.39-4.7,5.43-10.23.38-2.07.73-4.29-.06-6.27S337.05,158.56,335.28,159.55Z"
       style="isolation:isolate;fill:url(#affbcb73-3856-4618-99c7-e40132de58a9)"
       id="path243" />
    <polygon
       points="283.26 312.25 283.26 312.24 283.26 312.24 283.26 312.25"
       style="fill:url(#b2579f5a-5ccc-41d3-a4d4-6bb721ad1ed9)"
       id="polygon245" />
    <path
       d="M263,202.46,223.7,170a5.24,5.24,0,0,1-3.37,4.11l39.33,32.45a2.67,2.67,0,0,0,3.27.09,2.85,2.85,0,0,0,.47-.45A2.65,2.65,0,0,0,263,202.46Z"
       style="fill:#fce1ae"
       id="path247" />
    <polygon
       points="253.26 201.29 254.95 195.8 240.84 184.19 237.3 188.16 253.26 201.29"
       style="fill:url(#fde65bcf-25b1-42ee-9759-07061a4247c1)"
       id="polygon249" />
    <path
       d="M238.19,191.1a16.65,16.65,0,0,1,4.64-5.6c2.62-2.13,8.88,1.82,7.75,5-1.07,3-2.81,5.85.93,9.4-5.8,2.77-9.14,2.22-13.85-1.3C235.32,196.5,237.19,193,238.19,191.1Z"
       style="fill:#ffcac9"
       id="path251" />
    <path
       d="M148.86,135.13a43.71,43.71,0,1,0,53.07-31.71A43.71,43.71,0,0,0,148.86,135.13Zm77,19.41A35.73,35.73,0,1,1,200,111.16,35.73,35.73,0,0,1,225.9,154.54Z"
       style="fill:url(#b0894d1a-bc66-44ce-b0cf-1b6e137f29f7)"
       id="path253" />
    <path
       d="M153.65,136.34a38.77,38.77,0,1,0,47.07-28.13A38.78,38.78,0,0,0,153.65,136.34Zm72.25,18.2A35.73,35.73,0,1,1,200,111.16,35.73,35.73,0,0,1,225.9,154.54Z"
       style="fill:#fce1ae;opacity:0.5"
       id="path255" />
    <circle
       cx="191.25"
       cy="145.81"
       r="37.19"
       style="opacity:0.18;isolation:isolate;fill:url(#f3a605f5-a1f0-4db1-b0cb-cd8d7e995326)"
       id="circle257" />
    <path
       d="M301.77,232.61c.33-6,.54-8.71-.19-14.75"
       style="fill:none;stroke:#1881db;stroke-linecap:round;stroke-miterlimit:10;stroke-width:0.5px"
       id="path259" />
    <path
       d="M356,223c-2.87,5.24-4.24,7.63-6.19,13.39"
       style="fill:none;stroke:#1881db;stroke-linecap:round;stroke-miterlimit:10;stroke-width:0.5px"
       id="path261" />
    <path
       d="M304.5,222.09s-1.32,1.63-.69,2.66c.41.67,6.42,2.87,7.26,2.53s1.55-3,1.22-3.26A41.45,41.45,0,0,0,304.5,222.09Z"
       style="fill:none;stroke:#1881db;stroke-miterlimit:10;stroke-width:0.5px;isolation:isolate"
       id="path263" />
    <path
       d="M308.56,224.57a.49.49,0,1,0-.82-.54A.49.49,0,1,0,308.56,224.57Z"
       style="fill:#e6e6ff;opacity:0.44"
       id="path265" />
    <path
       d="M347.6,224.52s.87,1.91,0,2.76c-.57.55-6.93,1.2-7.67.67s-.77-3.28-.39-3.46A41.59,41.59,0,0,1,347.6,224.52Z"
       style="fill:none;stroke:#1881db;stroke-miterlimit:10;stroke-width:0.5px;isolation:isolate"
       id="path267" />
    <path
       d="M343.05,225.93a.49.49,0,1,1,.93-.31A.49.49,0,1,1,343.05,225.93Z"
       style="fill:#e6e6ff;opacity:0.44"
       id="path269" />
    <g
       style="opacity:0.64"
       id="g273">
      <path
         d="M332.17,164.31c-8-4.38-16.57.12-24.3-6.73-3.05-2.7-6-.86-3.29,3.22a29.46,29.46,0,0,0,9.64,4.32,31.43,31.43,0,0,0,12.53.76,10.17,10.17,0,0,1,3,1.9,17.71,17.71,0,0,1,2.15,2.67c.91,1.68,3.72,3.67,1.71,11.71a1.86,1.86,0,0,0,0,1.12,1.16,1.16,0,0,0,.94.65C337.41,181.91,340.14,168.7,332.17,164.31Z"
         style="fill:#32325c"
         id="path271" />
    </g>
    <path
       d="M335.34,160.06c-1.14-3.39,3.18-7.08,1.34-10.07"
       style="fill:none;stroke-linecap:round;stroke-miterlimit:10;stroke-width:0.5px;isolation:isolate;stroke:url(#a3bac120-7b5a-4b44-910e-6d0efd5322d4)"
       id="path275" />
    <path
       d="M341.84,157.9c-2.59-1-5,0-6.7,2.16"
       style="fill:none;stroke-linecap:round;stroke-miterlimit:10;stroke-width:0.5px;isolation:isolate;stroke:url(#f22fa06e-4f84-44a0-9369-da50bc3e2635)"
       id="path277" />
    <path
       d="M307.33,164.64c1.25,1.2,6.29,1.45,7.76.64"
       style="fill:none;stroke-linecap:round;stroke-miterlimit:10;stroke-width:0.5px;isolation:isolate;stroke:url(#b346de5b-117a-4876-9eb0-462d90efc53d)"
       id="path279" />
    <path
       d="M315.58,166.38a8.22,8.22,0,0,0,3.75-.45"
       style="fill:none;stroke-linecap:round;stroke-miterlimit:10;stroke-width:0.5px;isolation:isolate;stroke:url(#b1843375-38eb-4b9a-ba79-7c307234a1b1)"
       id="path281" />
    <path
       d="M303.52,161.28c1.26,1.87,4.24,3.31,6.48,2.59"
       style="fill:none;stroke:#b8b8e7;stroke-linecap:round;stroke-miterlimit:10;stroke-width:0.5px;opacity:0.44"
       id="path283" />
    <path
       d="M299.25,146.35c-1,2-.75,5.33,1,6.92"
       style="fill:none;stroke:#b8b8e7;stroke-linecap:round;stroke-miterlimit:10;stroke-width:0.5px;opacity:0.44"
       id="path285" />
    <path
       d="M334.55,156.29c1-2,.74-5.32-1-6.91"
       style="fill:none;stroke:#b8b8e7;stroke-linecap:round;stroke-miterlimit:10;stroke-width:0.5px;opacity:0.44"
       id="path287" />
    <path
       d="M196,144.6c-15.69-3.57-26.92-13-25.08-21.12s16.06-11.76,31.76-8.18,26.92,13,25.07,21.12S211.67,148.18,196,144.6Z"
       style="isolation:isolate;fill:url(#bbb76876-4a55-48ea-959b-c244c808ebee)"
       id="path289" />
    <path
       d="M210.25,148c-2.77-4.4-2.59-9.49.39-11.36s7.65.16,10.42,4.56,2.59,9.49-.4,11.37S213,152.4,210.25,148Z"
       style="opacity:0.72;isolation:isolate;fill:url(#ed8cc0f9-93a5-4387-9975-bb4223228292)"
       id="path291" />
    <path
       d="M198.33,175.78c-4.64-1.06-8-3.85-7.42-6.25s4.75-3.47,9.39-2.42,8,3.86,7.42,6.25S203,176.84,198.33,175.78Z"
       style="opacity:0.46;isolation:isolate;fill:url(#b1ab538b-9625-474c-9c56-0e080629f390)"
       id="path293" />
    <ellipse
       id="f9226420-3cbe-4cae-8c05-9d06a6d7b315"
       data-name="Ellipse 283"
       cx="187.7"
       cy="113.93"
       rx="47.14"
       ry="45.19"
       transform="translate(14.02 248.26) rotate(-68.98)"
       style="opacity:0.72000002861023;isolation:isolate;fill:url(#a1b19557-ad8a-4e40-a6ac-9cd532819116)" />
    <path
       d="M215.39,366.39c-8.38-3.62-16.37-10.72-25.56-12.07a47.33,47.33,0,0,1-6.79-2c-11.88-6-18.25-4.25-25.51-.33-4.47,2.41-6,9-14.36,11.76L139,366.64c18.6,1.6,50.49-.81,69.13-.27,2.51.07,5,.09,7.54.12Z"
       style="fill:url(#af39074f-acc1-443e-ab9d-6b2580b8c5f3)"
       id="path296" />
    <path
       d="M198.7,300.28c-8.12-4.17-15.62-11.79-24.7-13.75a46.94,46.94,0,0,1-6.64-2.47c-11.46-6.74-17.92-5.46-25.43-2-4.62,2.11-6.63,8.57-15.11,10.79l-4.38,2.62c18.46,2.84,50.44,2.55,69,4.33,2.5.24,5,.43,7.52.63Z"
       style="fill:url(#ab5916c3-a6f3-43ec-93eb-cedd6e413382)"
       id="path298" />
    <path
       d="M416.75,302.7c7.06-3.26,13.71-9.48,21.51-10.83A40.3,40.3,0,0,0,444,290c10-5.33,15.45-4,21.72-.82,3.86,1.95,5.34,7.52,12.48,9.71l3.64,2.39c-15.81,1.76-43,.39-58.89,1.24-2.13.12-4.28.2-6.42.27Z"
       style="fill:url(#b5d221fe-fbd4-46e2-b066-dc1981e13d37)"
       id="path300" />
    <path
       d="M484.64,367.34c-8.38-3.62-16.36-10.72-25.55-12.07a46.9,46.9,0,0,1-6.79-2c-11.89-6-18.25-4.25-25.52-.33-4.46,2.41-6,9-14.35,11.76,0,0-4.2,2.91-4.2,2.92,18.61,1.59,50.5-.82,69.13-.28,2.51.07,5,.1,7.55.13Z"
       style="fill:url(#bd3c5d69-cecb-4cad-8da1-824cb497cb86)"
       id="path302" />
  </g>
</svg>
